<svg xmlns="http://www.w3.org/2000/svg" viewBox="0 0 44 44"><defs><style>.cls-1{fill:#7fc6b0;}.cls-2{fill:#fff;}</style></defs><title>Asset 3</title><g id="Layer_2" data-name="Layer 2"><g id="Layer_2-2" data-name="Layer 2"><circle class="cls-1" cx="22" cy="22" r="22"/><g id="HfY5rJ.tif"><path class="cls-2" d="M11.57,21.83c2.06,2.22,4,4.33,6,6.46.92,1,.89,2.33-.13,2.64a2.26,2.26,0,0,1-1.92-.38c-2.41-2.45-4.71-5-7-7.55a1.64,1.64,0,0,1,0-2.49l6.84-7.4a1.58,1.58,0,0,1,2.35-.32c.74.56.7,1.61-.09,2.48-1.81,2-3.65,3.92-5.48,5.88C12,21.34,11.81,21.54,11.57,21.83Z"/></g></g></g></svg>