<svg xmlns="http://www.w3.org/2000/svg" viewBox="0 0 10.31 18.6"><defs><style>.cls-1{fill:#7fc6b0;}</style></defs><title>Asset 1</title><g id="Layer_2" data-name="Layer 2"><g id="Layer_2-2" data-name="Layer 2"><g id="HfY5rJ.tif"><path class="cls-1" d="M3.66,9.43c2.06,2.21,4,4.32,6,6.45.93,1,.9,2.34-.12,2.65a2.26,2.26,0,0,1-1.92-.38c-2.41-2.45-4.71-5-7-7.55a1.64,1.64,0,0,1,0-2.49L7.43.71A1.58,1.58,0,0,1,9.78.39c.74.56.7,1.61-.09,2.48C7.88,4.85,6,6.79,4.21,8.75,4,8.94,3.89,9.14,3.66,9.43Z"/></g></g></g></svg>